<svg width="170" height="89" viewBox="0 0 170 89" fill="none" xmlns="http://www.w3.org/2000/svg">
<path d="M52.49 63.2805C53.2642 63.2805 53.6518 62.3749 53.1044 61.8452L33.9186 43.2795L52.0964 25.6892C52.2598 25.5311 52.351 25.3176 52.351 25.0948V0.217773H91.4523V24.602C91.4523 25.0662 91.8416 25.4429 92.3212 25.4429H116.651C117.131 25.4429 117.52 25.0662 117.52 24.602V0.217773H169.655V25.4429H118.389C117.909 25.4429 117.52 25.8196 117.52 26.2837V48.6382C117.52 49.3874 118.456 49.7624 119.003 49.2326L137.07 31.7491L156.621 50.6679L145.071 61.8452C144.523 62.3749 144.911 63.2805 145.685 63.2805H169.655V88.5056H143.587V65.3103C143.587 64.5611 142.652 64.1861 142.104 64.7158L117.52 88.5056L97.9692 69.5868L116.037 52.1033C116.584 51.5735 116.196 50.6679 115.422 50.6679H91.4523V26.2837C91.4523 25.8196 91.063 25.4429 90.5834 25.4429H54.4486C53.6744 25.4429 53.2868 26.3484 53.8342 26.8782L91.4523 63.2805V88.5056H26.2843V64.1213C26.2843 63.6572 25.8951 63.2805 25.4154 63.2805H0.216797V38.0554H26.2843V62.4397C26.2843 62.9038 26.6736 63.2805 27.1533 63.2805H52.49Z" fill="black"/>
</svg>
